<?xml version="1.0" encoding="UTF-8"?>
<svg id="_레이어_2" data-name="레이어 2" xmlns="http://www.w3.org/2000/svg" viewBox="0 0 154.28 8.93">
  <g id="_레이어_1-2" data-name="레이어 1">
    <g>
      <path d="M3.26,8.83l-.16-.02-.2-.04-.32-.05-.36-.12-.24-.08-.46-.19-.32-.18-.14-.11-.2-.14-.34-.3-.26-.23-.14-.23-.11-.2v-.24l.11-.2,.13-.17,.2-.11,.12-.04,.12-.05h.16l.16,.04,.12,.07,.29,.26,.05,.08,.05,.05,.35,.28,.14,.11,.13,.06,.24,.13,.26,.1,.19,.1,.17,.05,.12,.02h.19s.11,.01,.11,.01h.07s.18,0,.18,0h.29s.18-.04,.18-.04h.18l.14-.02h.16s.13-.05,.13-.05l.1-.05,.16-.05,.2-.12,.26-.22,.17-.2,.04-.1,.07-.18,.02-.23-.04-.3-.2-.32-.24-.14-.13-.06-.18-.06-.17-.05-.18-.02-.18-.05-.17-.02-.16-.04h-.17s-.25-.06-.25-.06l-.25-.02-.13-.04-.25-.02-.48-.08-.17-.04-.14-.05-.24-.06-.24-.08-.17-.07-.19-.07-.26-.13-.19-.12-.05-.02-.13-.11-.16-.14-.08-.07-.07-.1-.1-.14-.06-.11-.12-.19-.12-.47v-.35l.02-.2,.04-.28,.05-.18,.05-.12,.06-.12,.05-.11,.08-.13,.13-.18,.37-.37,.12-.06,.17-.12,.2-.1,.16-.12,.13-.07,.11-.05h.11s.12-.08,.12-.08l.43-.12,.23-.04,.28-.04,.13-.02h.16s.26-.04,.26-.04h.24s.11,.01,.11,.01h.08s.42,.05,.42,.05l.07,.02h.1l.12,.02,.11,.02,.14,.02,.31,.12,.12,.07,.11,.05,.16,.1,.3,.13,.17,.16,.26,.2,.23,.24,.2,.29,.11,.2-.02,.36-.02,.07-.05,.08-.1,.08-.22,.13-.23,.08h-.19s-.19-.1-.19-.1l-.12-.08-.13-.13-.2-.22-.17-.14-.11-.08-.2-.11-.13-.11-.28-.12-.19-.05-.32-.04h-.22s-.32,0-.32,0l-.29,.02h-.24s-.36,.08-.36,.08l-.35,.16-.14,.08-.19,.13-.24,.22-.07,.18-.05,.14v.22s.04,.22,.04,.22l.07,.19,.06,.08,.1,.07,.17,.13,.25,.1,.37,.11,.23,.05,.14,.04h.13s.16,.04,.16,.04l.11,.02,.13,.06h.2s.24,.01,.24,.01l.14,.04,.2,.04,.24,.06,.12,.04h.12s.05,.05,.05,.05l.31,.04,.55,.14,.26,.12,.25,.11,.2,.16,.07,.07,.17,.12,.18,.2,.07,.14,.07,.13,.05,.08,.02,.1,.07,.19,.02,.17v.05s.04,.02,.04,.02v.17s.01,.44,.01,.44l-.05,.28-.05,.19-.06,.17-.06,.12-.02,.08-.08,.14-.11,.16-.1,.11-.08,.11-.06,.06-.08,.11-.11,.11-.14,.1-.2,.13-.12,.07-.08,.05-.12,.06-.12,.05-.08,.04-.17,.05-.24,.08-.31,.07-.29,.02-.18,.02h-.24s-.47,.01-.47,.01h-.29Z"/>
      <path d="M10,8.65l-.23-.06-.17-.17-.05-.17v-.28s.01-.48,.01-.48v-.29s-.01-.19-.01-.19v-.28s-.01-.3-.01-.3v-.16s.02-.13,.02-.13l-.04-.2v-.37l.02-.29-.02-.24,.04-.22v-.14s-.01-.22-.01-.22l-.04-.22v-.14s.01-.19,.01-.19l-.04-.34v-.2s.02-.36,.02-.36v-.67s0-.24,0-.24V.72s.04-.19,.04-.19l.06-.11,.07-.07,.16-.11,.23-.02h.47s.19,.07,.19,.07l.1,.11,.1,.16v.22s.02,.3,.02,.3v.34s.01,.2,.01,.2v.3s-.01,.29-.01,.29l.02,.2v.3s-.02,.37-.02,.37v.41s.01,.3,.01,.3v.26s0,.32,0,.32v.56s-.01,.34-.01,.34v.26s.01,.67,.01,.67v.19s.01,.62,.01,.62l.02,.13v.84s-.07,.34-.07,.34l-.06,.13-.06,.07-.08,.04-.22,.08h-.35s-.16,0-.16,0Z"/>
      <path d="M14,8.66l-.24-.12-.11-.23v-.26s-.04-.13-.04-.13v-.24l.02-.22v-.24s-.02-.26-.02-.26v-.23s-.01-.31-.01-.31v-.49s-.01-.32-.01-.32v-.41s.01-.19,.01-.19l-.02-.34v-.61s.02-.34,.02-.34v-.95s-.01-.72-.01-.72v-.16s.01-.61,.01-.61v-.28s-.04-.24-.04-.24v-.2l.02-.1,.08-.13,.1-.07,.23-.04,.24-.02h.26s.22,.02,.22,.02l.1,.06,.08,.08,.08,.18,.13,.2,.14,.26,.13,.29,.22,.37,.16,.29,.14,.31,.23,.46,.14,.24,.13,.3,.13,.23,.06,.12,.06,.11,.07,.14,.12,.29,.17,.3,.12,.24,.07,.16,.06,.12,.08,.14,.13,.25,.13,.28,.12,.18,.11,.2,.06,.16,.07,.04,.06-.04,.08-.12,.08-.13,.08-.16,.14-.3,.13-.26,.07-.16,.1-.14,.07-.08,.04-.1,.04-.11,.12-.18,.08-.18,.07-.11,.11-.2,.12-.25,.11-.23,.11-.24,.11-.22,.12-.18,.13-.29,.16-.29,.14-.32,.18-.36,.11-.23,.04-.13,.1-.17,.05-.14,.12-.24,.18-.29,.14-.1,.14-.05,.54-.05,.22,.02,.19,.07,.07,.11,.02,.08,.02,.19v1.46s0,.28,0,.28v1.38s.01,.17,.01,.17v.25s.02,.36,.02,.36v.29s.01,.37,.01,.37v1.21s-.01,.19-.01,.19v.16s0,.26,0,.26v.24s0,.31,0,.31v.36s-.01,.26-.01,.26l-.06,.22-.07,.08-.12,.07-.1,.04-.14,.04h-.2s-.16-.01-.16-.01l-.12-.02-.12-.04-.14-.07-.16-.34-.04-.37v-.25s.01-.4,.01-.4v-.5s-.01-1-.01-1l-.04-.4,.02-.26v-.46s.01-.23,.01-.23v-.13s-.01-.31-.01-.31v-.04s-.05-.02-.05-.02l-.02,.02-.06,.08-.04,.11-.08,.14-.06,.12-.07,.12-.08,.17-.11,.24-.12,.26-.13,.19-.12,.2-.11,.22-.08,.18-.13,.24-.18,.34-.08,.2-.08,.23-.16,.29-.06,.14-.06,.08-.05,.11-.06,.1-.05,.1-.13,.25-.11,.23-.02,.07-.11,.16-.22,.16-.16,.02h-.14s-.17,.02-.17,.02h-.17s-.13-.07-.13-.07l-.13-.18-.14-.3-.1-.18-.1-.22-.13-.29-.12-.22-.07-.17-.05-.11-.06-.12-.25-.42-.06-.08-.12-.26-.12-.25-.06-.12-.13-.2-.14-.34-.12-.24-.08-.19-.14-.24-.14-.31-.14-.26-.08-.1-.04,.04v.46s-.01,.2-.01,.2v.1s.01,.16,.01,.16v.18s.01,.35,.01,.35v.7s-.02,.19-.02,.19v.8s0,.2,0,.2l.02,.22v.17l.02,.26v.22l-.04,.34-.04,.13-.12,.16-.4,.11h-.26l-.2-.06Z"/>
      <path d="M25.5,8.67l-.17-.05-.1-.08-.08-.11-.02-.17v-.17s-.04-.26-.04-.26v-.12l.04-.26,.02-.3v-.36s0-.23,0-.23v-.2s.01-.31,.01-.31v-.18s-.02-.22-.02-.22v-.18s.02-.08,.02-.08l-.04-.11-.02-.1,.05-.04,.06-.02v-.06h-.1s-.02-.05-.02-.05v-.04s.04-.05,.04-.05l-.02-.08v-.18s.01-.11,.01-.11v-.16s-.01-.08-.01-.08l.02-.11v-.23l.02-.17,.02-.08v-.35s-.02-.2-.02-.2v-.22s-.01-.28-.01-.28l-.02-.46v-.23l-.02-.14v-.84s-.01-.14-.01-.14l.02-.26,.07-.18,.05-.05,.08-.07h.11s.13-.05,.13-.05h.18l.11-.02h.13s.62,.04,.62,.04h.07s.16,0,.16,0h.22s.22,.01,.22,.01h.18s.4-.01,.4-.01l.08-.02h.41s.11,.01,.11,.01l.11-.02h.12s.13,0,.13,0l.12,.02,.11-.04h.08s.05,.01,.05,.01l.06-.02,.11,.02h.26s.22,0,.22,0h.13s.17,.04,.17,.04l.19,.05,.17,.04,.25,.1,.2,.1,.22,.11,.23,.19,.17,.18,.08,.11,.1,.16,.08,.17,.06,.16,.05,.13v.1s.07,.16,.07,.16l.05,.22,.02,.17,.04,.17v.66s-.07,.25-.07,.25l-.02,.23-.1,.18-.02,.1-.06,.12-.05,.11-.12,.13-.13,.17-.06,.08-.11,.11-.12,.16-.08,.1-.1,.05-.07,.05-.1,.05-.12,.05-.22,.05-.08,.05-.13,.06-.11,.02h-.13s-.16,.04-.16,.04h-.65s-.24,.01-.24,.01h-.2s-.2,.01-.2,.01h-.28s-.35,.02-.35,.02h-.78s-.3,.01-.3,.01l-.28,.04-.08,.2-.07,.25v.82s0,.16,0,.16v.26s0,.34,0,.34v.42l-.04,.14v.31s-.07,.12-.07,.12l-.14,.13-.17,.04-.11,.04h-.19s-.26,0-.26,0Zm2.7-4.67h.31s.08-.02,.08-.02h.07s.1,0,.1,0h.18s.28,0,.28,0l.62-.02,.25-.07,.18-.1,.2-.22,.17-.3,.05-.2v-.16s.01-.24,.01-.24l-.05-.26-.06-.26-.1-.18-.08-.08-.14-.1-.35-.16-.35-.04h-.18s-.23,0-.23,0h-.16s-.17,0-.17,0h-.13s-.67,.01-.67,.01h-.14s-.07-.02-.07-.02h-.23s-.2,0-.2,0l-.3,.02-.28-.02h-.07s-.08,.02-.08,.02l-.06,.13-.05,.18-.04,.24v.4s-.04,.17-.04,.17v.89l.02,.22,.04,.07,.06,.05,.16,.04,.19,.02h.2s.6,.01,.6,.01h.19s.25-.01,.25-.01Z"/>
      <path d="M34.46,8.62l-.16-.08-.08-.17-.06-.22v-.25s0-.26,0-.26v-.24s.01-.18,.01-.18v-.31s-.01-1.09-.01-1.09l-.02-.13v-.26s-.01-.74-.01-.74v-.34s.01-.23,.01-.23l.02-.26v-.26s.04-.31,.04-.31l-.02-.31,.02-.25v-.55l-.02-.17v-.65s-.01-.66-.01-.66l.05-.19,.04-.08,.06-.08,.08-.05,.14-.04h.16s.16,.01,.16,.01h.42s.13,.04,.13,.04l.07,.07,.06,.11,.02,.08v.19s.02,.24,.02,.24v.18l.02,.26v.19l-.02,.24v.2s-.01,.76-.01,.76v.26s.04,.23,.04,.23v.22s.02,.36,.02,.36v.26s0,.08,0,.08v.13s.02,.23,.02,.23v.23s-.01,.11-.01,.11v.11s0,.08,0,.08l-.02,.24v.62s-.05,.26-.05,.26v.48s.05,.29,.05,.29v.2s.08,.1,.08,.1l.06,.02h.79s.11,0,.11,0h.12s.19,.02,.19,.02h.24s.25,.01,.25,.01l.19-.04h.23s.22-.01,.22-.01h.18s.24,.01,.24,.01l.14,.02h.22l.29-.04h.47s.17,.01,.17,.01l.16,.04,.13,.08,.13,.16,.02,.08v.54l-.02,.12-.04,.08-.1,.08-.2,.11-.17,.02h-.2s-.62-.01-.62-.01l-.2,.04h-.16s-.68-.01-.68-.01h-.18s-.71,.01-.71,.01h-2.31l-.18-.06Z"/>
      <path d="M46.9,8.68h-.08s-.11,0-.11,0l-.28-.02h-.24s-.16,0-.16,0h-.34s-.25,.01-.25,.01h-.23s-.19-.01-.19-.01l-.17,.02h-.19s-.06,0-.06,0l-.26-.02h-.76s-.43,0-.43,0h-.58s-.19-.12-.19-.12l-.14-.24-.02-.29v-1.22s0-.28,0-.28v-.6s-.02-.25-.02-.25v-.12s-.01-.17-.01-.17v-.18s.01-.29,.01-.29v-.04s0-.11,0-.11v-.14s-.01-.11-.01-.11v-.29s0-.5,0-.5v-.34s.01-.2,.01-.2v-.35s-.01-.78-.01-.78l-.02-.2v-.16s.01-.14,.01-.14v-.23s.01-.13,.01-.13v-.23s.02-.32,.02-.32l.05-.16,.08-.13,.13-.08,.1-.05,.13-.02h.35l.5,.02h1.13s.25-.02,.25-.02h.37s.78-.01,.78-.01l.26,.04h.26l.19-.02h.34s.19,.02,.19,.02l.48-.02h.13s.18,0,.18,0l.19,.02,.18,.07,.1,.14,.07,.24,.02,.25v.16s-.08,.22-.08,.22l-.13,.17-.13,.05-.28,.02h-.43s-.25,.02-.25,.02h-.11s-.38,.01-.38,.01h-1.02s-.28-.02-.28-.02h-.12l-.24,.02h-.64s-.22,.01-.22,.01h-.26s-.23,.01-.23,.01l-.22,.06-.04,.19v.2s-.04,.08-.04,.08v.48s.01,.3,.01,.3v.31s.05,.28,.05,.28l.14,.08h.1l.26,.04,.31-.02h.2l.25,.02,.26-.02h.91s.66-.01,.66-.01h.18s.2,.07,.2,.07l.14,.14,.05,.13,.02,.12v.1s.04,.28,.04,.28l-.04,.25-.08,.14-.24,.12h-.63l-.7,.04h-.38s-.13-.01-.13-.01h-.49s-.14,0-.14,0h-.22s-.29,0-.29,0l-.14,.02-.16,.05-.08,.07v.17s-.02,.18-.02,.18l-.02,.2v.44s.01,.23,.01,.23v.19s-.01,.32-.01,.32l.11,.31,.34,.14h1.17s.34,0,.34,0h.68s.25-.04,.25-.04h.72l.14,.02h.6s.3,.04,.3,.04h.16l.1,.02,.11,.07,.07,.11,.04,.22v.25s-.01,.14-.01,.14l-.02,.13-.05,.14-.07,.1-.08,.05-.12,.04-.6,.06-.31,.04h-.58Z"/>
      <path d="M54.86,8.65l-.23-.06-.17-.17-.05-.17v-.28s.01-.48,.01-.48v-.29s-.01-.19-.01-.19v-.28s-.01-.3-.01-.3v-.16s.02-.13,.02-.13l-.04-.2v-.37l.02-.29-.02-.24,.04-.22v-.14s-.01-.22-.01-.22l-.04-.22v-.14s.01-.19,.01-.19l-.04-.34v-.2s.02-.36,.02-.36v-.67s0-.24,0-.24V.72s.04-.19,.04-.19l.06-.11,.07-.07,.16-.11,.23-.02h.47s.19,.07,.19,.07l.1,.11,.1,.16v.22s.02,.3,.02,.3v.34s.01,.2,.01,.2v.3s-.01,.29-.01,.29l.02,.2v.3s-.02,.37-.02,.37v.41s.01,.3,.01,.3v.26s0,.32,0,.32v.56s-.01,.34-.01,.34v.26s.01,.67,.01,.67v.19s.01,.62,.01,.62l.02,.13v.84s-.07,.34-.07,.34l-.06,.13-.06,.07-.08,.04-.22,.08h-.35s-.16,0-.16,0Z"/>
      <path d="M58.87,8.66l-.24-.12-.11-.23v-.26s-.04-.13-.04-.13v-.24l.02-.22v-.24s-.02-.26-.02-.26v-.23s-.01-.31-.01-.31v-.49s-.01-.32-.01-.32v-.41s.01-.19,.01-.19l-.02-.34v-.61s.02-.34,.02-.34v-.95s-.01-.72-.01-.72v-.16s.01-.61,.01-.61v-.28s-.04-.24-.04-.24v-.2l.02-.1,.08-.13,.1-.07,.23-.04,.24-.02h.26s.22,.02,.22,.02l.1,.06,.08,.08,.08,.18,.13,.2,.14,.26,.13,.29,.22,.37,.16,.29,.14,.31,.23,.46,.14,.24,.13,.3,.13,.23,.06,.12,.06,.11,.07,.14,.12,.29,.17,.3,.12,.24,.07,.16,.06,.12,.08,.14,.13,.25,.13,.28,.12,.18,.11,.2,.06,.16,.07,.04,.06-.04,.08-.12,.08-.13,.08-.16,.14-.3,.13-.26,.07-.16,.1-.14,.07-.08,.04-.1,.04-.11,.12-.18,.08-.18,.07-.11,.11-.2,.12-.25,.11-.23,.11-.24,.11-.22,.12-.18,.13-.29,.16-.29,.14-.32,.18-.36,.11-.23,.04-.13,.1-.17,.05-.14,.12-.24,.18-.29,.14-.1,.14-.05,.54-.05,.22,.02,.19,.07,.07,.11,.02,.08,.02,.19v1.46s0,.28,0,.28v1.38s.01,.17,.01,.17v.25s.02,.36,.02,.36v.29s.01,.37,.01,.37v1.21s-.01,.19-.01,.19v.16s0,.26,0,.26v.24s0,.31,0,.31v.36s-.01,.26-.01,.26l-.06,.22-.07,.08-.12,.07-.1,.04-.14,.04h-.2s-.16-.01-.16-.01l-.12-.02-.12-.04-.14-.07-.16-.34-.04-.37v-.25s.01-.4,.01-.4v-.5s-.01-1-.01-1l-.04-.4,.02-.26v-.46s.01-.23,.01-.23v-.13s-.01-.31-.01-.31v-.04s-.05-.02-.05-.02l-.02,.02-.06,.08-.04,.11-.08,.14-.06,.12-.07,.12-.08,.17-.11,.24-.12,.26-.13,.19-.12,.2-.11,.22-.08,.18-.13,.24-.18,.34-.08,.2-.08,.23-.16,.29-.06,.14-.06,.08-.05,.11-.06,.1-.05,.1-.13,.25-.11,.23-.02,.07-.11,.16-.22,.16-.16,.02h-.14s-.17,.02-.17,.02h-.17s-.13-.07-.13-.07l-.13-.18-.14-.3-.1-.18-.1-.22-.13-.29-.12-.22-.07-.17-.05-.11-.06-.12-.25-.42-.06-.08-.12-.26-.12-.25-.06-.12-.13-.2-.14-.34-.12-.24-.08-.19-.14-.24-.14-.31-.14-.26-.08-.1-.04,.04v.46s-.01,.2-.01,.2v.1s.01,.16,.01,.16v.18s.01,.35,.01,.35v.7s-.02,.19-.02,.19v.8s0,.2,0,.2l.02,.22v.17l.02,.26v.22l-.04,.34-.04,.13-.12,.16-.4,.11h-.26l-.2-.06Z"/>
      <path d="M69.95,8.8l-.16-.04-.22-.11-.17-.13-.12-.14-.05-.14v-.22l.11-.22,.07-.18,.06-.13,.07-.14,.11-.25,.07-.19,.23-.46,.12-.26,.11-.28,.19-.37,.12-.28,.08-.17,.08-.18,.1-.2,.17-.43,.14-.25,.1-.26,.17-.36,.19-.44,.11-.24,.18-.46,.13-.28,.06-.18,.11-.2,.08-.17,.02-.1,.05-.12,.06-.17,.08-.12,.07-.14,.07-.13,.05-.1,.08-.14,.14-.12,.3-.06h.32l.16,.04,.13,.12,.08,.16,.07,.14,.12,.28,.12,.26,.23,.44,.07,.19,.08,.16,.07,.22,.1,.22,.06,.17,.08,.17,.13,.3,.13,.26,.08,.22,.08,.14,.05,.13,.08,.18,.11,.19,.07,.19,.07,.2,.07,.12,.06,.16,.12,.22,.1,.24,.16,.37,.22,.41,.12,.29,.08,.18,.05,.11,.05,.16,.14,.29,.11,.23,.06,.1,.11,.23,.08,.25,.06,.2-.05,.26-.13,.16-.24,.12-.42,.11-.28-.06-.11-.1-.12-.12-.04-.16-.11-.23-.13-.28-.07-.13-.11-.24-.13-.28-.05-.11-.08-.14-.11-.19-.08-.16-.12-.08-.24-.02h-.3s-1.4,.01-1.4,.01h-.4s-.31,.01-.31,.01h-.17s-.2,.01-.2,.01h-.19s-.16,.1-.16,.1l-.07,.11-.24,.48-.12,.22-.04,.13-.06,.12-.07,.17-.1,.2-.06,.18-.12,.19-.14,.22-.13,.11-.19,.05h-.2Zm4.26-3.66h.01s.04-.02,.04-.02l.05-.11-.04-.22-.07-.18-.26-.47-.12-.23-.16-.38-.1-.23-.08-.22-.13-.31-.14-.12-.1,.19-.1,.3-.2,.46-.16,.32-.11,.3-.1,.22-.12,.24v.1s-.04,.11-.04,.11v.12l.08,.08h.2s.22,.01,.22,.01l.33,.02,.8,.02h.28Z"/>
      <path d="M82.63,8.9l-.22-.02-.23-.07-.25-.05-.12-.04-.19-.06-.34-.1-.23-.1-.43-.24-.24-.19-.17-.11-.13-.12-.23-.19-.2-.22-.14-.2-.19-.24-.18-.28-.14-.32-.1-.26-.07-.14-.05-.16-.06-.24-.04-.19-.02-.13-.04-.2-.02-.23-.02-.11v-.14s-.01-.25-.01-.25l.02-.19v-.3s.06-.19,.06-.19l.02-.18,.05-.17,.02-.13,.05-.16,.06-.11,.04-.11,.02-.08,.1-.18,.11-.19,.07-.11,.12-.23,.19-.23,.17-.24,.28-.26,.28-.23,.12-.11,.19-.12,.24-.16,.13-.07,.14-.1,.13-.07,.13-.05,.2-.06,.3-.1,.29-.1,.25-.04,.16-.04h.52s.28,.02,.28,.02l.3,.02,.08,.02,.18,.02,.24,.06,.18,.04,.12,.04,.3,.11,.18,.1,.13,.06,.11,.07,.36,.17,.23,.18,.19,.13,.13,.12,.08,.07,.14,.18,.18,.23,.08,.17,.04,.18-.07,.24-.12,.18-.17,.13-.25,.13h-.26s-.17-.05-.17-.05l-.18-.16-.24-.23-.28-.23-.3-.19-.28-.16-.22-.08-.19-.06-.67-.12-.23-.02h-.06s-.26,.04-.26,.04l-.41,.07-.26,.06-.18,.08-.26,.13-.25,.16-.14,.12-.11,.11-.1,.08-.34,.38-.06,.11-.08,.12-.13,.29-.1,.24-.06,.19-.08,.26-.05,.35v.41l.04,.2,.02,.29,.02,.2,.05,.19,.07,.17,.07,.14,.08,.12,.07,.13,.11,.11,.08,.11,.11,.17,.1,.12,.18,.16,.35,.29,.4,.23,.34,.13,.32,.08,.22,.05,.28,.02,.47-.04,.24-.04,.31-.08,.23-.07,.41-.19,.25-.17,.18-.17,.23-.25,.11-.16,.12-.18,.12-.22,.12-.24,.05-.19,.02-.16v-.12s-.17-.1-.17-.1h-.83s-.12-.01-.12-.01h-.8s-.14,.02-.14,.02h-.17s-.11-.01-.11-.01h-.18l-.25-.02-.19-.07-.1-.14-.05-.19-.04-.32v-.24l.05-.13,.1-.14,.12-.07,.12-.04h.49l.46-.04h.52s.26-.01,.26-.01h.85s.23,.01,.23,.01l.48,.02,.42,.04,.12,.04,.13,.07,.18,.19,.12,.37v.5l-.05,.43-.05,.23-.04,.11-.02,.17-.11,.28-.08,.26-.07,.12-.07,.17-.11,.19-.07,.12-.1,.16-.14,.18-.12,.12-.19,.23-.25,.24-.12,.1-.13,.1-.12,.06-.07,.06-.23,.14-.1,.04-.24,.12-.24,.08-.18,.04-.17,.06-.1,.02h-.11s-.18,.06-.18,.06h-.2l-.11,.04h-.23s-.23,.01-.23,.01l-.14,.02h-.26Z"/>
      <path d="M94,8.68h-.08s-.11,0-.11,0l-.28-.02h-.24s-.16,0-.16,0h-.34s-.25,.01-.25,.01h-.23s-.19-.01-.19-.01l-.17,.02h-.19s-.06,0-.06,0l-.26-.02h-.76s-.43,0-.43,0h-.58s-.19-.12-.19-.12l-.14-.24-.02-.29v-1.22s0-.28,0-.28v-.6s-.02-.25-.02-.25v-.12s-.01-.17-.01-.17v-.18s.01-.29,.01-.29v-.04s0-.11,0-.11v-.14s-.01-.11-.01-.11v-.29s0-.5,0-.5v-.34s.01-.2,.01-.2v-.35s-.01-.78-.01-.78l-.02-.2v-.16s.01-.14,.01-.14v-.23s.01-.13,.01-.13v-.23s.02-.32,.02-.32l.05-.16,.08-.13,.13-.08,.1-.05,.13-.02h.35l.5,.02h1.13s.25-.02,.25-.02h.37s.78-.01,.78-.01l.26,.04h.26l.19-.02h.34s.19,.02,.19,.02l.48-.02h.13s.18,0,.18,0l.19,.02,.18,.07,.1,.14,.07,.24,.02,.25v.16s-.08,.22-.08,.22l-.13,.17-.13,.05-.28,.02h-.43s-.25,.02-.25,.02h-.11s-.38,.01-.38,.01h-1.02s-.28-.02-.28-.02h-.12l-.24,.02h-.64s-.22,.01-.22,.01h-.26s-.23,.01-.23,.01l-.22,.06-.04,.19v.2s-.04,.08-.04,.08v.48s.01,.3,.01,.3v.31s.05,.28,.05,.28l.14,.08h.1l.26,.04,.31-.02h.2l.25,.02,.26-.02h.91s.66-.01,.66-.01h.18s.2,.07,.2,.07l.14,.14,.05,.13,.02,.12v.1s.04,.28,.04,.28l-.04,.25-.08,.14-.24,.12h-.63l-.7,.04h-.38s-.13-.01-.13-.01h-.49s-.14,0-.14,0h-.22s-.29,0-.29,0l-.14,.02-.16,.05-.08,.07v.17s-.02,.18-.02,.18l-.02,.2v.44s.01,.23,.01,.23v.19s-.01,.32-.01,.32l.11,.31,.34,.14h1.17s.34,0,.34,0h.68s.25-.04,.25-.04h.72l.14,.02h.6s.3,.04,.3,.04h.16l.1,.02,.11,.07,.07,.11,.04,.22v.25s-.01,.14-.01,.14l-.02,.13-.05,.14-.07,.1-.08,.05-.12,.04-.6,.06-.31,.04h-.58Z"/>
      <path d="M104.36,8.83l-.16-.02-.2-.04-.32-.05-.36-.12-.24-.08-.46-.19-.32-.18-.14-.11-.2-.14-.34-.3-.26-.23-.14-.23-.11-.2v-.24l.11-.2,.13-.17,.2-.11,.12-.04,.12-.05h.16l.16,.04,.12,.07,.29,.26,.05,.08,.05,.05,.35,.28,.14,.11,.13,.06,.24,.13,.26,.1,.19,.1,.17,.05,.12,.02h.19s.11,.01,.11,.01h.07s.18,0,.18,0h.29s.18-.04,.18-.04h.18l.14-.02h.16s.13-.05,.13-.05l.1-.05,.16-.05,.2-.12,.26-.22,.17-.2,.04-.1,.07-.18,.02-.23-.04-.3-.2-.32-.24-.14-.13-.06-.18-.06-.17-.05-.18-.02-.18-.05-.17-.02-.16-.04h-.17s-.25-.06-.25-.06l-.25-.02-.13-.04-.25-.02-.48-.08-.17-.04-.14-.05-.24-.06-.24-.08-.17-.07-.19-.07-.26-.13-.19-.12-.05-.02-.13-.11-.16-.14-.08-.07-.07-.1-.1-.14-.06-.11-.12-.19-.12-.47v-.35l.02-.2,.04-.28,.05-.18,.05-.12,.06-.12,.05-.11,.08-.13,.13-.18,.37-.37,.12-.06,.17-.12,.2-.1,.16-.12,.13-.07,.11-.05h.11s.12-.08,.12-.08l.43-.12,.23-.04,.28-.04,.13-.02h.16s.26-.04,.26-.04h.24s.11,.01,.11,.01h.08s.42,.05,.42,.05l.07,.02h.1l.12,.02,.11,.02,.14,.02,.31,.12,.12,.07,.11,.05,.16,.1,.3,.13,.17,.16,.26,.2,.23,.24,.2,.29,.11,.2-.02,.36-.02,.07-.05,.08-.1,.08-.22,.13-.23,.08h-.19s-.19-.1-.19-.1l-.12-.08-.13-.13-.2-.22-.17-.14-.11-.08-.2-.11-.13-.11-.28-.12-.19-.05-.32-.04h-.22s-.32,0-.32,0l-.29,.02h-.24s-.36,.08-.36,.08l-.35,.16-.14,.08-.19,.13-.24,.22-.07,.18-.05,.14v.22s.04,.22,.04,.22l.07,.19,.06,.08,.1,.07,.17,.13,.25,.1,.37,.11,.23,.05,.14,.04h.13s.16,.04,.16,.04l.11,.02,.13,.06h.2s.24,.01,.24,.01l.14,.04,.2,.04,.24,.06,.12,.04h.12s.05,.05,.05,.05l.31,.04,.55,.14,.26,.12,.25,.11,.2,.16,.07,.07,.17,.12,.18,.2,.07,.14,.07,.13,.05,.08,.02,.1,.07,.19,.02,.17v.05s.04,.02,.04,.02v.17s.01,.44,.01,.44l-.05,.28-.05,.19-.06,.17-.06,.12-.02,.08-.08,.14-.11,.16-.1,.11-.08,.11-.06,.06-.08,.11-.11,.11-.14,.1-.2,.13-.12,.07-.08,.05-.12,.06-.12,.05-.08,.04-.17,.05-.24,.08-.31,.07-.29,.02-.18,.02h-.24s-.47,.01-.47,.01h-.29Z"/>
      <path d="M115.32,8.68h-.08s-.11,0-.11,0l-.28-.02h-.24s-.16,0-.16,0h-.34s-.25,.01-.25,.01h-.23s-.19-.01-.19-.01l-.17,.02h-.19s-.06,0-.06,0l-.26-.02h-.76s-.43,0-.43,0h-.58s-.19-.12-.19-.12l-.14-.24-.02-.29v-1.22s0-.28,0-.28v-.6s-.02-.25-.02-.25v-.12s-.01-.17-.01-.17v-.18s.01-.29,.01-.29v-.04s0-.11,0-.11v-.14s-.01-.11-.01-.11v-.29s0-.5,0-.5v-.34s.01-.2,.01-.2v-.35s-.01-.78-.01-.78l-.02-.2v-.16s.01-.14,.01-.14v-.23s.01-.13,.01-.13v-.23s.02-.32,.02-.32l.05-.16,.08-.13,.13-.08,.1-.05,.13-.02h.35l.5,.02h1.13s.25-.02,.25-.02h.37s.78-.01,.78-.01l.26,.04h.26l.19-.02h.34s.19,.02,.19,.02l.48-.02h.13s.18,0,.18,0l.19,.02,.18,.07,.1,.14,.07,.24,.02,.25v.16s-.08,.22-.08,.22l-.13,.17-.13,.05-.28,.02h-.43s-.25,.02-.25,.02h-.11s-.38,.01-.38,.01h-1.02s-.28-.02-.28-.02h-.12l-.24,.02h-.64s-.22,.01-.22,.01h-.26s-.23,.01-.23,.01l-.22,.06-.04,.19v.2s-.04,.08-.04,.08v.48s.01,.3,.01,.3v.31s.05,.28,.05,.28l.14,.08h.1l.26,.04,.31-.02h.2l.25,.02,.26-.02h.91s.66-.01,.66-.01h.18s.2,.07,.2,.07l.14,.14,.05,.13,.02,.12v.1s.04,.28,.04,.28l-.04,.25-.08,.14-.24,.12h-.64l-.7,.04h-.38s-.13-.01-.13-.01h-.49s-.14,0-.14,0h-.22s-.29,0-.29,0l-.14,.02-.16,.05-.08,.07v.17s-.02,.18-.02,.18l-.02,.2v.44s.01,.23,.01,.23v.19s-.01,.32-.01,.32l.11,.31,.34,.14h1.17s.34,0,.34,0h.68s.25-.04,.25-.04h.72l.14,.02h.6s.3,.04,.3,.04h.16l.1,.02,.11,.07,.07,.11,.04,.22v.25s-.01,.14-.01,.14l-.02,.13-.05,.14-.07,.1-.08,.05-.12,.04-.6,.06-.31,.04h-.58Z"/>
      <path d="M119.16,8.8l-.16-.04-.22-.11-.17-.13-.12-.14-.05-.14v-.22l.11-.22,.07-.18,.06-.13,.07-.14,.11-.25,.07-.19,.23-.46,.12-.26,.11-.28,.19-.37,.12-.28,.08-.17,.08-.18,.1-.2,.17-.43,.14-.25,.1-.26,.17-.36,.19-.44,.11-.24,.18-.46,.13-.28,.06-.18,.11-.2,.08-.17,.02-.1,.05-.12,.06-.17,.08-.12,.07-.14,.07-.13,.05-.1,.08-.14,.14-.12,.3-.06h.32l.16,.04,.13,.12,.08,.16,.07,.14,.12,.28,.12,.26,.23,.44,.07,.19,.08,.16,.07,.22,.1,.22,.06,.17,.08,.17,.13,.3,.13,.26,.08,.22,.08,.14,.05,.13,.08,.18,.11,.19,.07,.19,.07,.2,.07,.12,.06,.16,.12,.22,.1,.24,.16,.37,.22,.41,.12,.29,.08,.18,.05,.11,.05,.16,.14,.29,.11,.23,.06,.1,.11,.23,.08,.25,.06,.2-.05,.26-.13,.16-.24,.12-.42,.11-.28-.06-.11-.1-.12-.12-.04-.16-.11-.23-.13-.28-.07-.13-.11-.24-.13-.28-.05-.11-.08-.14-.11-.19-.08-.16-.12-.08-.24-.02h-.3s-1.4,.01-1.4,.01h-.4s-.31,.01-.31,.01h-.17s-.2,.01-.2,.01h-.19s-.16,.1-.16,.1l-.07,.11-.24,.48-.12,.22-.04,.13-.06,.12-.07,.17-.1,.2-.06,.18-.12,.19-.14,.22-.13,.11-.19,.05h-.2Zm4.26-3.66h.01s.04-.02,.04-.02l.05-.11-.04-.22-.07-.18-.26-.47-.12-.23-.16-.38-.1-.23-.08-.22-.13-.31-.14-.12-.1,.19-.1,.3-.2,.46-.16,.32-.11,.3-.1,.22-.12,.24v.1s-.04,.11-.04,.11v.12l.08,.08h.2s.22,.01,.22,.01l.33,.02,.8,.02h.28Z"/>
      <path d="M134.43,8.77l-.12-.07-.1-.08-.13-.14-.14-.2-.1-.12-.1-.13-.1-.14-.11-.16-.07-.12-.1-.12-.13-.19-.19-.22-.13-.17-.11-.16-.16-.19-.18-.22-.14-.2-.19-.23-.12-.17-.07-.1-.08-.06-.12-.08-.12-.06-.13-.02-.16-.02h-.11s-.74-.01-.74-.01l-.29,.02-.24,.08-.06,.19-.02,.32-.02,.28v.14s-.02,.31-.02,.31v.58s0,.1,0,.1v.43s-.01,.25-.01,.25l-.02,.17-.02,.19-.06,.12-.06,.07-.07,.04-.12,.04h-.14l-.22,.02-.26-.02-.13-.02-.12-.05-.11-.19-.06-.17v-.58s-.02-.12-.02-.12l.04-.47v-.53s-.04-.19-.04-.19v-1.04s.02-.14,.02-.14v-.1s-.01-.55-.01-.55v-.23s.01-.47,.01-.47v-.25s-.01-.17-.01-.17l.02-.12-.02-.14v-.32s0-.07,0-.07v-.12s.01-.22,.01-.22v-.05s.01-.18,.01-.18v-.58l-.02-.12,.02-.12-.04-.23v-.46s.06-.2,.06-.2l.07-.11,.07-.06,.13-.07,.35-.05,.53,.02h.42s.28-.02,.28-.02h.32s.2,0,.2,0h.28s.61,0,.61,0h.38s.55-.01,.55-.01h.28s.65,.07,.65,.07l.14,.04,.22,.07,.28,.12,.3,.18,.17,.17,.1,.11,.18,.19,.11,.2,.06,.19,.08,.2,.06,.17,.05,.1,.02,.11,.02,.1v.14s0,.16,0,.16v.29s.02,.37,.02,.37v.18s-.04,.1-.04,.1l-.04,.13-.05,.13-.08,.24-.12,.28-.07,.11-.07,.12-.13,.14-.12,.11-.12,.13-.2,.13-.14,.07-.2,.14-.25,.11-.07,.07v.06s.02,.05,.02,.05l.07,.12,.13,.22,.17,.2,.12,.14,.06,.11,.1,.11,.36,.52,.13,.17,.14,.19,.12,.14,.1,.16,.13,.17,.08,.22-.02,.08-.05,.16-.14,.24-.17,.11-.2,.14-.26,.11-.12-.02Zm-1.62-4.74h.11s.13-.02,.13-.02h.1s.12,0,.12,0l.11-.05,.08-.04,.11-.04,.07-.06,.08-.08,.07-.1,.1-.25,.05-.25,.02-.11v-.18s.04-.14,.04-.14l-.02-.18-.06-.22-.06-.19-.14-.23-.2-.13-.17-.05-.23-.07h-.23s-.18-.02-.18-.02h-.11s-.11-.01-.11-.01h-.13s-.14,.01-.14,.01h-.97s-.19-.01-.19-.01h-.22s-.18-.02-.18-.02h-.37l-.29,.04-.07,.02-.04,.08v.16s-.02,.31-.02,.31v.66s0,.38,0,.38v.36s.02,.22,.02,.22l.18,.11,.16,.04h.16s.22-.01,.22-.01l.13,.02h.26s.25,.01,.25,.01h.07s.26,0,.26,0h.32l.5,.05h.41Z"/>
      <path d="M141.56,8.91h-.23s-.28,0-.28,0l-.23-.05-.56-.1-.16-.06-.38-.13-.12-.06-.13-.07-.12-.06-.07-.06-.17-.08-.14-.11-.14-.08-.13-.13-.06-.05-.13-.12-.13-.14-.17-.18-.14-.19-.08-.1-.1-.12-.08-.13-.12-.2-.11-.22-.07-.16-.08-.2-.11-.22-.04-.16-.06-.17v-.16s-.05-.12-.05-.12v-.2s-.05-.18-.05-.18v-.28s-.02-.2-.02-.2v-.36l.06-.22,.02-.13,.07-.29,.1-.37,.12-.28,.07-.19,.07-.14,.11-.18,.04-.1,.02-.04,.1-.13,.17-.22,.18-.23,.17-.19,.16-.16,.24-.19,.3-.2,.24-.17,.36-.19,.2-.08,.18-.06,.19-.06,.16-.04,.34-.08,.19-.04h.11s.24-.02,.24-.02l.25-.02h.26l.26,.04,.1,.02,.24,.02,.25,.07,.35,.11,.32,.12,.08,.05,.22,.12,.28,.13,.25,.19,.23,.17,.17,.13,.19,.18,.17,.2,.14,.22,.06,.16v.19s-.12,.19-.12,.19l-.12,.16-.19,.19-.16,.08-.2,.02-.18-.04-.14-.11-.19-.19-.19-.17-.14-.17-.19-.14-.13-.1-.22-.11-.2-.11-.2-.05-.3-.08-.22-.05h-.26l-.29-.04-.31,.05-.22,.04-.23,.06-.23,.07-.25,.12-.3,.17-.16,.1-.12,.11-.18,.16-.14,.14-.13,.17-.19,.25-.18,.38-.16,.4-.04,.19-.02,.17-.02,.25v.28l.05,.3,.04,.31,.06,.2,.04,.2,.07,.2,.07,.1,.06,.13,.05,.13,.02,.05,.1,.11,.14,.22,.12,.14,.11,.11,.17,.13,.19,.17,.14,.08,.25,.13,.24,.12,.17,.05,.23,.05,.35,.06h.22s.41-.01,.41-.01l.34-.05,.26-.06,.25-.08,.18-.07,.19-.11,.24-.17,.22-.17,.35-.35,.12-.13,.18-.08,.23-.02,.36,.13,.3,.32,.07,.19v.14s-.07,.2-.07,.2l-.13,.22-.14,.14-.2,.22-.58,.4-.2,.11-.1,.07-.66,.3-.16,.04-.18,.05-.16,.04-.17,.05-.35,.02-.25,.04-.24-.02Z"/>
      <path d="M147.56,8.65l-.25-.11-.08-.13-.05-.17v-.24s0-.19,0-.19v-.25s-.01-.32-.01-.32v-.18s0-.19,0-.19v-.35s-.01-.2-.01-.2l.04-.43v-.71s-.02-.12-.02-.12v-.56s.01-.34,.01-.34v-.19s-.01-.32-.01-.32v-.3s-.01-.86-.01-.86v-.43s-.01-.24-.01-.24v-.26s0-.29,0-.29v-.32l.02-.36,.08-.14,.06-.06,.18-.12,.3-.04h.22l.17,.04,.13,.04,.08,.07,.07,.11,.04,.1,.02,.14,.02,.19v.71s.01,.25,.01,.25v.23s-.01,.54-.01,.54v.22s.02,.23,.02,.23v.26s.01,.14,.01,.14l.02,.07,.1,.05h.22s.35,.02,.35,.02h.65s.3,0,.3,0h1.3s.24,0,.24,0h.35s.3,0,.3,0l.2-.02,.12-.04,.05-.1,.05-.16,.02-.2v-.9s0-.18,0-.18V.83l.04-.22,.04-.12,.06-.1,.16-.13,.23-.05h.2s.24,.01,.24,.01l.2,.06,.17,.14,.06,.25,.02,.17,.02,.23-.02,.25v.67s.02,.41,.02,.41v.35s-.02,.37-.02,.37v.56s-.01,.19-.01,.19v.23s0,.32,0,.32v.41s.04,.38,.04,.38l-.02,.32v.29s.01,.18,.01,.18v.16s-.02,.26-.02,.26l.02,.23v.16s.01,.18,.01,.18v.17s0,.2,0,.2l-.02,.18v.13s.01,.17,.01,.17l-.02,.26-.05,.26-.14,.19-.18,.07-.32,.04-.33-.02-.12-.05-.16-.12-.07-.18-.02-.17v-.42s.01-2.23,.01-2.23v-.31s-.11-.14-.11-.14l-.19-.02-.6-.02h-.31s-.46-.02-.46-.02h-.47s-.42,0-.42,0l-.29,.02h-.58s-.32,.01-.32,.01h-.2s-.08,.04-.08,.04l-.19,.17-.05,.29v1.23s-.02,.19-.02,.19l.02,.22v.32s.01,.25,.01,.25v.18s0,.23,0,.23l-.02,.22-.08,.12-.11,.08-.23,.1-.22,.05h-.14l-.23-.04Z"/>
    </g>
  </g>
</svg>